<svg width="198" height="190" viewBox="0 0 198 190" fill="none" xmlns="http://www.w3.org/2000/svg">
<g filter="url(#filter0_d_178_245)">
<mask id="path-1-inside-1_178_245" fill="white">
<path d="M98.8 19L32.9333 57L32.9333 133L98.8 171L164.667 133L164.667 57L98.8 19Z"/>
</mask>
<path d="M100.3 21.5974C99.2999 19.8658 98.3001 18.1342 97.3004 16.4026C90.4882 19.8134 83.6844 23.2387 76.8891 26.6787C61.0354 34.7043 45.2276 42.8093 29.4657 50.9939L26.1854 52.6972L25.9942 57.0022C24.869 82.3359 23.9313 107.67 23.181 133.003L23.0231 138.336L28.0558 141.442C49.6361 154.758 71.3102 167.912 93.0781 180.903L98.6014 184.2L104.517 180.902C126.66 168.56 148.709 156.056 170.665 143.389L176.67 139.925L176.67 132.996C176.67 132.994 176.67 132.991 176.67 132.989C176.67 107.658 175.92 82.3274 174.42 56.9969L174.718 51.9642L169.545 48.5571C153.649 40.599 137.57 32.9592 121.307 25.6378C114.338 22.5009 107.337 19.4224 100.301 16.4024C99.3003 18.1341 98.2997 19.8659 97.2992 21.5976C103.434 26.1762 109.603 30.6963 115.806 35.158C130.283 45.5713 144.944 55.6663 159.789 65.4429L154.913 57.0031C153.413 82.3346 152.663 107.666 152.663 132.997C152.663 132.999 152.663 133.002 152.663 133.004L158.668 122.611C136.713 135.277 114.851 148.106 93.0829 161.098L104.522 161.097C82.3787 148.755 60.1417 136.575 37.8108 124.558L42.6856 132.997C41.9354 107.664 40.9977 82.3307 39.8724 56.9978L36.401 63.0061C51.3757 53.4581 66.3044 43.8305 81.1873 34.1234C87.5665 29.9627 93.9373 25.7873 100.3 21.5974ZM97.3004 16.4026L100.3 21.5974L97.2992 21.5976L100.301 16.4024L99.0963 15.5035L97.3004 16.4026Z" fill="white" mask="url(#path-1-inside-1_178_245)"/>
</g>
<mask id="path-3-inside-2_178_245" fill="white">
<path d="M98.8001 57L131.733 76V114L98.8001 133L65.8668 114V76L98.8001 57Z"/>
</mask>
<path d="M99.7996 55.2676C99.1333 56.4225 98.467 57.5775 97.8007 58.7324C100.894 60.9785 103.996 63.2073 107.109 65.4188C114.374 70.5802 121.694 75.6473 129.068 80.6201L126.4 76C125.511 88.6667 124.845 101.333 124.4 114L128.069 107.648C116.869 113.596 105.78 119.737 94.8024 126.071C94.8024 126.071 94.8024 126.071 94.8024 126.071L102.798 126.071C91.8201 119.737 80.7313 113.596 69.5313 107.648L73.1999 114C72.7555 101.333 72.0891 88.6667 71.2006 76L68.5322 80.6201C75.9063 75.6473 83.2259 70.5802 90.4911 65.4188C93.6039 63.2073 96.7067 60.9785 99.7996 58.7324C99.1333 57.5775 98.467 56.4225 97.8007 55.2676C94.3081 56.8208 90.8255 58.3913 87.3528 59.9791C79.2479 63.685 71.1974 67.4853 63.2014 71.3799L60.3441 73.3068L60.533 76C59.6445 88.6667 58.9781 101.333 58.5337 114L58.6911 118.487L62.2023 120.352C72.9579 127.07 83.8246 133.596 94.8024 139.929L98.8001 142.236L102.798 139.93C102.798 139.93 102.798 139.929 102.798 139.929C113.776 133.596 124.642 127.07 135.398 120.352L139.206 117.973L139.067 114C138.622 101.333 137.956 88.6667 137.067 76L136.826 72.5622L134.399 71.3799C126.403 67.4853 118.352 63.685 110.247 59.9791C106.775 58.3913 103.292 56.8208 99.7996 55.2676ZM97.8007 58.7324L99.7996 55.2676L98.5598 54.7163L97.8007 55.2676L99.7996 58.7324L97.8007 58.7324Z" fill="white" mask="url(#path-3-inside-2_178_245)"/>
<g filter="url(#filter1_d_178_245)">
<path d="M98.8003 58.0133C98.767 58.6298 98.7336 59.2462 98.7003 59.8626C98.1003 70.9586 97.5003 82.0546 96.9003 93.1506C96.867 93.7671 96.8336 94.3835 96.8003 95C98.1336 95 99.467 95 100.8 95C100.767 94.3835 100.734 93.7671 100.7 93.1506C100.1 82.0546 99.5003 70.9586 98.9003 59.8626C98.867 59.2462 98.8336 58.6298 98.8003 58.0133Z" fill="white"/>
<path d="M127.437 111.315C126.97 111.007 126.504 110.7 126.037 110.392C117.643 104.857 109.249 99.3211 100.855 93.7856C100.388 93.478 99.9221 93.1705 99.4557 92.863C98.7887 94.0175 98.1217 95.1719 97.4546 96.3264C97.9543 96.5762 98.454 96.826 98.9537 97.0758C107.948 101.572 116.943 106.069 125.937 110.565C126.437 110.815 126.937 111.065 127.437 111.315Z" fill="white"/>
<path d="M70.1787 111.315C70.6784 111.065 71.1781 110.815 71.6778 110.565C80.6724 106.069 89.6669 101.572 98.6615 97.0758C99.1612 96.826 99.6609 96.5762 100.161 96.3264C99.4936 95.1719 98.8265 94.0175 98.1595 92.863C97.6931 93.1705 97.2268 93.478 96.7605 93.7856C88.3662 99.3211 79.972 104.857 71.5778 110.392C71.1114 110.7 70.6451 111.007 70.1787 111.315Z" fill="white"/>
</g>
<path d="M98.7998 133C98.7498 133.6 98.6998 134.2 98.6498 134.8C97.7498 145.6 96.8498 156.4 95.9498 167.2C95.8998 167.8 95.8498 168.4 95.7998 169C97.7998 169 99.7998 169 101.8 169C101.75 168.4 101.7 167.8 101.65 167.2C100.75 156.4 99.8498 145.6 98.9498 134.8C98.8998 134.2 98.8498 133.6 98.7998 133Z" fill="white"/>
<path d="M131.251 76.2864C131.795 76.0276 132.338 75.7688 132.882 75.51C142.668 70.8517 152.454 66.1934 162.24 61.5351C162.783 61.2763 163.327 61.0176 163.87 60.7588C162.863 59.0312 161.855 57.3036 160.847 55.5761C160.354 55.9212 159.861 56.2664 159.368 56.6116C150.489 62.8247 141.61 69.0378 132.731 75.2509C132.238 75.596 131.744 75.9412 131.251 76.2864Z" fill="white"/>
<path d="M66.3931 76.3041C65.8984 75.961 65.4037 75.6178 64.909 75.2747C56.0044 69.0984 47.0999 62.9221 38.1953 56.7459C37.7006 56.4027 37.2059 56.0596 36.7112 55.7165C35.7107 57.4482 34.7101 59.1799 33.7096 60.9117C34.2543 61.1682 34.799 61.4247 35.3437 61.6813C45.1488 66.299 54.9538 70.9167 64.7589 75.5345C65.3036 75.791 65.8483 76.0475 66.3931 76.3041Z" fill="white"/>
<defs>
<filter id="filter0_d_178_245" x="28.9333" y="19" width="139.733" height="160" filterUnits="userSpaceOnUse" color-interpolation-filters="sRGB">
<feFlood flood-opacity="0" result="BackgroundImageFix"/>
<feColorMatrix in="SourceAlpha" type="matrix" values="0 0 0 0 0 0 0 0 0 0 0 0 0 0 0 0 0 0 127 0" result="hardAlpha"/>
<feOffset dy="4"/>
<feGaussianBlur stdDeviation="2"/>
<feComposite in2="hardAlpha" operator="out"/>
<feColorMatrix type="matrix" values="0 0 0 0 0 0 0 0 0 0 0 0 0 0 0 0 0 0 0.25 0"/>
<feBlend mode="normal" in2="BackgroundImageFix" result="effect1_dropShadow_178_245"/>
<feBlend mode="normal" in="SourceGraphic" in2="effect1_dropShadow_178_245" result="shape"/>
</filter>
<filter id="filter1_d_178_245" x="64.1787" y="54.0133" width="69.2578" height="65.3014" filterUnits="userSpaceOnUse" color-interpolation-filters="sRGB">
<feFlood flood-opacity="0" result="BackgroundImageFix"/>
<feColorMatrix in="SourceAlpha" type="matrix" values="0 0 0 0 0 0 0 0 0 0 0 0 0 0 0 0 0 0 127 0" result="hardAlpha"/>
<feOffset dy="2"/>
<feGaussianBlur stdDeviation="3"/>
<feComposite in2="hardAlpha" operator="out"/>
<feColorMatrix type="matrix" values="0 0 0 0 0 0 0 0 0 0 0 0 0 0 0 0 0 0 0.25 0"/>
<feBlend mode="normal" in2="BackgroundImageFix" result="effect1_dropShadow_178_245"/>
<feBlend mode="normal" in="SourceGraphic" in2="effect1_dropShadow_178_245" result="shape"/>
</filter>
</defs>
</svg>
